<?xml version="1.0" encoding="UTF-8" standalone="no"?>
<!-- Created with Inkscape (http://www.inkscape.org/) -->

<svg
   width="60.59602mm"
   height="18.890863mm"
   viewBox="0 0 60.59602 18.890863"
   version="1.1"
   id="svg18255"
   inkscape:version="1.2.1 (9c6d41e, 2022-07-14)"
   sodipodi:docname="accessnri_dark.svg"
   inkscape:export-filename="accessnri_dark.png"
   inkscape:export-xdpi="96"
   inkscape:export-ydpi="96"
   xmlns:inkscape="http://www.inkscape.org/namespaces/inkscape"
   xmlns:sodipodi="http://sodipodi.sourceforge.net/DTD/sodipodi-0.dtd"
   xmlns="http://www.w3.org/2000/svg"
   xmlns:svg="http://www.w3.org/2000/svg">
  <sodipodi:namedview
     id="namedview18257"
     pagecolor="#ffffff"
     bordercolor="#000000"
     borderopacity="0.25"
     inkscape:showpageshadow="2"
     inkscape:pageopacity="0.0"
     inkscape:pagecheckerboard="0"
     inkscape:deskcolor="#d1d1d1"
     inkscape:document-units="mm"
     showgrid="false"
     inkscape:zoom="0.914906"
     inkscape:cx="-220.24121"
     inkscape:cy="365.61133"
     inkscape:window-width="1390"
     inkscape:window-height="1205"
     inkscape:window-x="0"
     inkscape:window-y="25"
     inkscape:window-maximized="0"
     inkscape:current-layer="layer1" />
  <defs
     id="defs18252">
    <clipPath
       clipPathUnits="userSpaceOnUse"
       id="clipPath13600">
      <g
         id="g13604"
         transform="matrix(2.8346458,0,0,-2.8346458,-214.02882,161.48453)">
        <path
           d="M -76.735756,212.25761 H 220.26432 V 2.2574702 H -76.735756 Z"
           id="path13602"
           style="stroke-width:0.352778" />
      </g>
    </clipPath>
    <clipPath
       clipPathUnits="userSpaceOnUse"
       id="clipPath13582">
      <g
         id="g13586"
         transform="matrix(2.8346458,0,0,-2.8346458,-235.90262,150.43533)">
        <path
           d="M -76.735756,212.25761 H 220.26432 V 2.2574702 H -76.735756 Z"
           id="path13584"
           style="stroke-width:0.352778" />
      </g>
    </clipPath>
    <clipPath
       clipPathUnits="userSpaceOnUse"
       id="clipPath13576">
      <g
         id="g13580"
         transform="matrix(2.8346458,0,0,-2.8346458,-235.51292,185.95083)">
        <path
           d="M -76.735756,212.25761 H 220.26432 V 2.2574702 H -76.735756 Z"
           id="path13578"
           style="stroke-width:0.352778" />
      </g>
    </clipPath>
    <clipPath
       clipPathUnits="userSpaceOnUse"
       id="clipPath13552">
      <g
         id="g13556"
         transform="matrix(2.8346458,0,0,-2.8346458,-231.17832,136.91773)">
        <path
           d="M -76.735756,212.25761 H 220.26432 V 2.2574702 H -76.735756 Z"
           id="path13554"
           style="stroke-width:0.352778" />
      </g>
    </clipPath>
    <clipPath
       clipPathUnits="userSpaceOnUse"
       id="clipPath13234-5-6">
      <g
         id="g13238-6-3"
         transform="matrix(2.8346458,0,0,-2.8346458,-117.03382,421.40813)">
        <path
           d="M -76.735756,212.25761 H 220.26432 V 2.2574702 H -76.735756 Z"
           id="path13236-2-2"
           style="stroke-width:0.352778" />
      </g>
    </clipPath>
    <clipPath
       clipPathUnits="userSpaceOnUse"
       id="clipPath13228-8-6">
      <g
         id="g13232-5-8"
         transform="matrix(2.8346458,0,0,-2.8346458,-92.703817,421.40813)">
        <path
           d="M -76.735756,212.25761 H 220.26432 V 2.2574702 H -76.735756 Z"
           id="path13230-9-9"
           style="stroke-width:0.352778" />
      </g>
    </clipPath>
    <clipPath
       clipPathUnits="userSpaceOnUse"
       id="clipPath13222-4-1">
      <g
         id="g13226-3-4"
         transform="matrix(2.8346458,0,0,-2.8346458,-68.373716,421.40813)">
        <path
           d="M -76.735756,212.25761 H 220.26432 V 2.2574702 H -76.735756 Z"
           id="path13224-9-8"
           style="stroke-width:0.352778" />
      </g>
    </clipPath>
    <clipPath
       clipPathUnits="userSpaceOnUse"
       id="clipPath13216-0-8">
      <g
         id="g13220-5-7"
         transform="matrix(2.8346458,0,0,-2.8346458,-44.043716,421.40813)">
        <path
           d="M -76.735756,212.25761 H 220.26432 V 2.2574702 H -76.735756 Z"
           id="path13218-6-1"
           style="stroke-width:0.352778" />
      </g>
    </clipPath>
  </defs>
  <g
     inkscape:label="Layer 1"
     inkscape:groupmode="layer"
     id="layer1"
     transform="translate(-56.459535,-51.863234)">
    <g
       id="g2490"
       transform="matrix(0.35277777,0,0,-0.35277777,56.97852,62.057152)"
       clip-path="url(#clipPath13600)">
      <path
         d="m 0,0 c -0.065,-0.797 -0.443,-1.335 -0.844,-1.199 -0.402,0.136 -0.668,0.892 -0.603,1.695 0.319,3.744 5.032,7.287 11.516,9.963 4.37,1.801 9.584,3.301 14.781,4.263 5.197,0.957 10.376,1.376 14.663,1.01 2.682,-0.224 5.038,-0.779 6.863,-1.718 -0.414,1.145 -1.914,1.984 -4.122,2.551 -3.248,0.838 -7.866,0.909 -12.88,0.413 C 24.36,16.476 18.962,15.407 14.161,13.972 6.927,11.805 1.157,8.941 0.443,6.171 0.26,5.451 -0.183,5.167 -0.543,5.539 c -0.361,0.372 -0.502,1.252 -0.319,1.973 0.956,3.702 7.151,7.069 14.811,9.366 4.83,1.441 10.281,2.521 15.36,3.023 4.494,0.449 8.699,0.443 11.923,-0.165 -0.236,0.219 -0.508,0.419 -0.821,0.602 -3.59,2.115 -11.309,1.559 -18.862,-0.094 C 13.972,18.59 6.596,15.838 3.703,13.565 3.266,13.216 2.953,12.909 2.799,12.644 2.492,12.124 2.031,12.201 1.766,12.821 c -0.26,0.614 -0.219,1.541 0.088,2.061 0.278,0.478 0.727,0.951 1.317,1.411 3,2.356 10.524,5.185 18.219,6.868 3.809,0.827 7.665,1.382 11.049,1.459 -2.534,0.543 -6.349,0.384 -10.175,-0.16 -4.92,-0.702 -9.833,-2.037 -12.13,-3.348 -0.538,-0.301 -0.88,-0.561 -0.986,-0.75 -0.302,-0.543 -0.762,-0.496 -1.034,0.106 -0.272,0.603 -0.248,1.53 0.053,2.073 0.278,0.502 0.821,0.975 1.565,1.394 2.38,1.358 7.417,2.74 12.425,3.449 5.032,0.72 10.081,0.761 12.473,-0.567 0.59,-0.325 1.051,-0.756 1.364,-1.299 0.159,-0.278 0.242,-0.656 0.248,-1.046 1.836,-0.206 3.407,-0.632 4.582,-1.323 0.615,-0.36 1.134,-0.797 1.548,-1.328 0.342,-0.431 0.443,-1.335 0.224,-2.02 -0.041,-0.13 -0.088,-0.236 -0.148,-0.331 2.717,-0.702 4.607,-2.013 5.221,-4.063 0.213,-0.696 0.094,-1.594 -0.248,-2.007 h -0.006 c 1.157,-0.786 2.02,-1.778 2.522,-2.995 C 50.197,9.779 50.149,8.858 49.836,8.344 49.807,8.297 49.777,8.25 49.742,8.215 53.267,-4.913 45.909,-18.638 32.834,-22.86 19.334,-27.224 4.854,-19.819 0.496,-6.325 L 48.472,9.183 c -1.346,2.126 -4.689,3.254 -9.018,3.626 C 35.226,13.169 30.118,12.756 24.98,11.805 19.842,10.854 14.681,9.372 10.364,7.589 4.459,5.155 0.207,2.38 0,0"
         style="fill:#00adef;fill-opacity:1;fill-rule:nonzero;stroke:none"
         id="path2492" />
    </g>
    <g
       id="g2502"
       transform="matrix(0.35277777,0,0,-0.35277777,64.69511,58.15924)"
       clip-path="url(#clipPath13582)">
      <path
         d="M 0,0 C 13.494,4.358 25.807,3.655 27.496,-1.577 29.191,-6.809 19.618,-14.581 6.118,-18.945 -7.376,-23.309 -19.689,-22.6 -21.378,-17.374 -23.067,-12.142 -13.5,-4.364 0,0"
         style="fill:#99d420;fill-opacity:1;fill-rule:nonzero;stroke:none"
         id="path2504" />
    </g>
    <g
       id="g2506"
       transform="matrix(0.35277777,0,0,-0.35277777,64.557633,70.688319)"
       clip-path="url(#clipPath13576)">
      <path
         d="m 0,0 c -0.159,0.006 -0.289,0.278 -0.283,0.596 0.005,0.325 0.135,0.579 0.301,0.573 5.12,-0.277 10.659,1.199 15.466,3.833 4.748,2.598 8.77,6.325 10.955,10.588 0.112,0.225 0.301,0.219 0.413,-0.011 0.112,-0.237 0.106,-0.603 -0.006,-0.833 C 24.596,10.346 20.48,6.52 15.638,3.868 10.777,1.211 5.179,-0.278 0,0 m -18.638,10.878 c -0.395,0.171 -0.649,0.951 -0.567,1.742 0.083,0.791 0.473,1.299 0.869,1.128 4.328,-1.831 10.618,-1.589 17.161,-0.041 6.094,1.446 12.39,4.027 17.539,7.128 5.061,3.047 9.106,6.543 10.524,9.879 0.815,1.577 0.549,1.861 0.342,2.575 l -0.13,0.295 c -0.561,1.743 -3.106,2.829 -6.856,3.237 -3.933,0.425 -9.089,-0.018 -14.652,-1.335 -1.706,-0.402 -3.425,-0.88 -5.125,-1.435 -6.691,-2.161 -12.414,-5.144 -16.246,-8.22 -3.367,-2.699 -5.197,-5.162 -4.689,-6.733 0.218,-0.679 0.118,-1.582 -0.219,-2.019 -0.342,-0.437 -0.791,-0.243 -1.01,0.437 -1.151,3.561 0.987,7.517 5.374,11.037 3.922,3.148 9.756,6.195 16.559,8.392 1.772,0.572 3.508,1.057 5.185,1.458 5.634,1.335 10.878,1.778 14.9,1.341 4.21,-0.455 7.169,-1.979 8.008,-4.577 0.053,-0.159 0.094,-0.307 0.129,-0.437 0.467,-1.984 0.231,-3.968 -0.59,-5.899 C 26.262,25.033 22.098,21.224 16.783,18.023 11.557,14.876 5.167,12.26 -1.004,10.795 -7.689,9.207 -14.149,8.976 -18.638,10.878 m 4.016,-4.766 c -0.325,0.071 -0.555,0.656 -0.52,1.299 0.042,0.644 0.331,1.105 0.65,1.034 5.835,-1.347 13.453,-0.136 20.687,2.386 5.61,1.954 10.99,4.689 15.118,7.624 4.01,2.858 6.797,5.811 7.364,8.285 0.106,0.466 0.1,0.903 -0.035,1.299 -0.189,0.532 -0.119,1.264 0.147,1.636 0.266,0.366 0.632,0.236 0.815,-0.295 C 30,28.234 30.035,27.018 29.746,25.76 29.031,22.677 26.002,19.305 21.703,16.246 17.516,13.264 12.071,10.488 6.39,8.516 -0.939,5.965 -8.675,4.742 -14.622,6.112 m 5.87,-3.821 c -0.242,0.018 -0.431,0.431 -0.419,0.916 0.012,0.484 0.218,0.862 0.46,0.838 6.691,-0.579 15.916,1.459 23.587,5.321 6.514,3.272 11.87,7.825 13.512,13.122 0.124,0.413 0.395,0.543 0.602,0.289 0.207,-0.254 0.272,-0.797 0.142,-1.21 C 27.36,15.833 21.803,11.031 15.089,7.653 7.346,3.762 -1.978,1.707 -8.752,2.291"
         style="fill:#99def9;fill-opacity:1;fill-rule:nonzero;stroke:none"
         id="path2508" />
    </g>
    <g
       id="g2522"
       transform="matrix(0.35277777,0,0,-0.35277777,63.028482,53.390531)"
       clip-path="url(#clipPath13552)">
      <path
         d="M 0,0 C -0.402,-0.124 -0.774,0.419 -0.839,1.217 -0.904,2.014 -0.626,2.77 -0.23,2.894 3.644,4.146 6.437,4.5 7.819,4.258 8.539,4.128 9.024,3.762 9.248,3.183 9.685,2.037 9.49,0.969 8.604,0.071 7.665,-0.88 5.256,-2.161 1.128,-3.496 c -2.782,-0.898 -5.994,-1.541 -7.937,-1.636 -0.549,-0.023 -1.01,-0.006 -1.335,0.059 -0.691,0.142 -1.098,0.679 -1.128,1.683 -0.017,0.52 0.077,0.981 0.29,1.364 0.301,0.544 0.767,0.496 1.033,-0.106 l 0.018,-0.041 c 0.266,-0.042 0.638,-0.053 1.087,-0.03 1.883,0.095 5.019,0.721 7.742,1.601 C 3.047,0.094 4.695,0.756 5.882,1.346 4.435,1.217 2.451,0.791 0,0 m 31.659,-16.027 c -0.26,0.626 -0.218,1.547 0.095,2.066 0.313,0.514 0.773,0.426 1.033,-0.194 0.053,-0.124 0.101,-0.26 0.148,-0.408 l 0.035,-0.112 c 0.957,-3.16 -0.661,-6.573 -4.104,-9.697 -3.035,-2.764 -7.606,-5.516 -13.028,-7.748 -1.559,-0.644 -3.188,-1.246 -4.877,-1.789 -6.792,-2.197 -13.294,-3.112 -18.313,-2.829 -5.215,0.301 -8.929,2.008 -9.916,5.055 -0.218,0.679 -0.124,1.583 0.219,2.02 0.336,0.437 0.791,0.242 1.01,-0.437 0.702,-2.179 3.986,-3.437 8.728,-3.709 4.919,-0.283 11.297,0.62 17.982,2.77 0.036,0.023 0.077,0.035 0.118,0.041 1.642,0.532 3.236,1.122 4.76,1.748 5.303,2.185 9.762,4.872 12.715,7.553 2.486,2.256 3.815,4.229 3.46,5.492 l -0.018,0.042 c -0.005,0.035 -0.023,0.077 -0.047,0.136 m -2.391,5.362 c -0.213,0.697 -0.095,1.594 0.248,2.014 0.348,0.413 0.797,0.188 1.003,-0.508 1.447,-4.825 -4.718,-9.733 -13.24,-13.424 -5.557,-2.403 -12.135,-4.446 -18.094,-5.657 -5.982,-1.216 -11.35,-1.594 -14.462,-0.655 -2.286,0.685 -3.538,2.226 -3.319,4.824 0.071,0.798 0.448,1.335 0.85,1.199 0.396,-0.136 0.667,-0.898 0.597,-1.695 -0.048,-0.543 0.738,-1.021 2.09,-1.429 2.994,-0.897 8.232,-0.525 14.102,0.667 5.888,1.199 12.402,3.225 17.923,5.617 7.412,3.206 12.998,6.714 12.302,9.047 m -5.056,7.47 c 0.219,0.685 0.668,0.886 1.01,0.449 0.213,-0.266 0.372,-0.585 0.479,-0.945 0.437,-1.423 0.106,-2.87 -0.869,-4.264 -0.661,-0.95 -1.7,-1.984 -3.047,-3.041 -3.596,-2.823 -9.49,-5.9 -16.151,-7.925 -6.313,-1.919 -12.366,-2.77 -16.695,-2.728 -1.902,0.017 -3.478,0.206 -4.612,0.555 -1.4,0.437 -2.256,1.281 -2.427,2.533 -0.065,0.502 -0.036,1.01 0.088,1.506 0.189,0.72 0.632,1.004 0.992,0.632 0.266,-0.278 0.414,-0.839 0.39,-1.4 0.142,-0.053 0.549,-0.183 1.181,-0.378 1.063,-0.324 2.563,-0.508 4.394,-0.525 4.246,-0.036 10.216,0.809 16.47,2.71 6.555,1.991 12.331,4.996 15.839,7.754 1.222,0.963 2.155,1.878 2.728,2.693 0.65,1.01 -0.484,0.142 0.23,2.374 m -6.401,4.01 c 0.266,0.608 0.726,0.667 1.033,0.136 0.095,-0.16 0.166,-0.337 0.225,-0.52 0.466,-1.441 0.106,-2.705 -0.933,-3.797 -0.632,-0.667 -1.595,-1.352 -2.811,-2.049 -2.9,-1.654 -7.364,-3.414 -12.201,-4.979 -5.457,-1.759 -11.368,-2.911 -14.9,-3.041 -1.003,-0.041 -1.824,0.006 -2.391,0.142 -0.945,0.218 -1.483,0.886 -1.506,2.049 v 0.041 c -0.006,0.567 0.118,1.075 0.378,1.518 0.307,0.526 0.773,0.449 1.033,-0.171 0.089,-0.213 0.142,-0.467 0.166,-0.721 0.023,0.118 0.059,0.207 0.094,0.195 0.526,-0.124 1.276,-0.159 2.203,-0.13 3.466,0.13 9.295,1.27 14.693,3.012 4.765,1.541 9.165,3.278 12.029,4.908 3.242,1.848 1.872,1.086 2.888,3.407"
         style="fill:#ffffff;fill-opacity:1;fill-rule:nonzero;stroke:none"
         id="path2524" />
    </g>
    <g
       id="g2734-6-3"
       transform="matrix(0.44443085,0,0,-0.35277777,105.31337,70.754098)"
       clip-path="url(#clipPath13234-5-6)">
      <path
         d="m 0,0 c -0.847,0 -1.539,0.686 -1.539,1.533 0,0.852 0.692,1.538 1.539,1.538 h 24.33 c 0.853,0 1.539,-0.686 1.539,-1.538 C 25.869,0.686 25.183,0 24.33,0 Z"
         style="fill:#99d420;fill-opacity:1;fill-rule:nonzero;stroke:none"
         id="path2736-3-1" />
    </g>
    <g
       id="g2738-0-1"
       transform="matrix(0.44443085,0,0,-0.35277777,94.500371,70.754098)"
       clip-path="url(#clipPath13228-8-6)"
       style="fill:#ffffff;fill-opacity:1">
      <path
         d="m 0,0 c -0.847,0 -1.539,0.686 -1.539,1.533 0,0.852 0.692,1.538 1.539,1.538 h 24.33 c 0.853,0 1.539,-0.686 1.539,-1.538 C 25.869,0.686 25.183,0 24.33,0 Z"
         style="fill:#ffffff;fill-opacity:1;fill-rule:nonzero;stroke:none"
         id="path2740-8-4" />
    </g>
    <g
       id="g2742-4-9"
       transform="matrix(0.44443085,0,0,-0.35277777,83.687321,70.754098)"
       clip-path="url(#clipPath13222-4-1)">
      <path
         d="m 0,0 c -0.847,0 -1.539,0.686 -1.539,1.533 0,0.852 0.692,1.538 1.539,1.538 h 24.33 c 0.847,0 1.539,-0.686 1.539,-1.538 C 25.869,0.686 25.177,0 24.33,0 Z"
         style="fill:#99def9;fill-opacity:1;fill-rule:nonzero;stroke:none"
         id="path2744-0-5" />
    </g>
    <g
       id="g2746-4-9"
       transform="matrix(0.44443085,0,0,-0.35277777,72.874318,70.754098)"
       clip-path="url(#clipPath13216-0-8)">
      <path
         d="m 0,0 c -0.853,0 -1.539,0.686 -1.539,1.533 0,0.852 0.686,1.538 1.539,1.538 h 24.33 c 0.847,0 1.539,-0.686 1.539,-1.538 C 25.869,0.686 25.177,0 24.33,0 Z"
         style="fill:#00adef;fill-opacity:1;fill-rule:nonzero;stroke:none"
         id="path2748-6-0" />
    </g>
    <text
       xml:space="preserve"
       style="font-size:19.4353px;font-family:Vogue;-inkscape-font-specification:Vogue;white-space:pre;inline-size:113.479;display:inline;fill:#00adee;fill-opacity:1;stroke:#000000;stroke-width:1.61961"
       x="17.760822"
       y="35.93269"
       id="text11196-2"
       transform="matrix(0.40033519,0,0,0.40033519,69.305536,47.553363)"><tspan
         x="17.760822"
         y="35.93269"
         id="tspan2843"><tspan
           style="stroke:none"
           id="tspan2841">ACCESS-NRI</tspan></tspan></text>
    <text
       xml:space="preserve"
       style="font-style:normal;font-variant:normal;font-weight:normal;font-stretch:normal;font-size:5.25364px;font-family:'Arial Rounded MT Bold';-inkscape-font-specification:'Arial Rounded MT Bold, Normal';font-variant-ligatures:normal;font-variant-caps:normal;font-variant-numeric:normal;font-variant-east-asian:normal;fill:#ffffff;fill-opacity:1;stroke:none;stroke-width:0.437803;stroke-opacity:1"
       x="76.220253"
       y="67.272675"
       id="text13726-3"><tspan
         sodipodi:role="line"
         id="tspan13724-4"
         style="font-style:normal;font-variant:normal;font-weight:normal;font-stretch:normal;font-size:5.25364px;font-family:'Arial Rounded MT Bold';-inkscape-font-specification:'Arial Rounded MT Bold, Normal';font-variant-ligatures:normal;font-variant-caps:normal;font-variant-numeric:normal;font-variant-east-asian:normal;fill:#ffffff;fill-opacity:1;stroke-width:0.437803"
         x="76.220253"
         y="67.272675">Intake catalog</tspan></text>
  </g>
</svg>
