<?xml version="1.0" encoding="UTF-8"?>
<svg width="640" height="220" version="1.1" viewBox="0 0 640 220" xml:space="preserve" xmlns="http://www.w3.org/2000/svg">
 <!--! Font Awesome Pro 6.4.0 by @fontawesome - https://fontawesome.com License - https://fontawesome.com/license (Commercial License) Copyright 2023 Fonticons, Inc. --><path d="m289.47 50.251c-12.346 0-22.362 10.016-22.362 22.362v74.54c0 12.346 10.016 22.362 22.362 22.362h74.54c4.123 0 7.454-3.331 7.454-7.454s-3.331-7.454-7.454-7.454v-14.908c4.123 0 7.454-3.331 7.454-7.454v-74.54c0-4.123-3.331-7.454-7.454-7.454h-7.454zm0 89.448h59.632v14.908h-59.632c-4.123 0-7.454-3.331-7.454-7.454 0-4.123 3.331-7.454 7.454-7.454zm7.454-55.905c0-2.0499 1.6772-3.727 3.727-3.727h44.724c2.0499 0 3.727 1.6772 3.727 3.727s-1.6772 3.727-3.727 3.727h-44.724c-2.0498 0-3.727-1.6771-3.727-3.727zm3.727 11.181h44.724c2.0499 0 3.727 1.6771 3.727 3.727 0 2.0498-1.6772 3.727-3.727 3.727h-44.724c-2.0498 0-3.727-1.6772-3.727-3.727 0-2.0499 1.6772-3.727 3.727-3.727z" fill="#459db8" stroke-width=".23294"/></svg>
