<?xml version="1.0" encoding="UTF-8"?>
<svg width="640" height="220" version="1.1" viewBox="0 0 640 220" xmlns="http://www.w3.org/2000/svg">
 <!--! Font Awesome Pro 6.4.0 by @fontawesome - https://fontawesome.com License - https://fontawesome.com/license (Commercial License) Copyright 2023 Fonticons, Inc. -->
 <path d="m336.6 49.351c-4.0239-1.1589-8.2134 1.1826-9.3732 5.2033l-30.297 105.96c-1.1598 4.0207 1.1835 8.207 5.2074 9.3659 4.0239 1.1589 8.2134-1.1826 9.3732-5.2033l30.297-105.96c1.1598-4.0207-1.1835-8.207-5.2074-9.3659zm19.078 28.405c-2.9587 2.9564-2.9587 7.7576 0 10.714l21.137 21.144-21.161 21.144c-2.9587 2.9564-2.9587 7.7576 0 10.714 2.9587 2.9564 7.7637 2.9564 10.722 0l26.51-26.489c2.9587-2.9564 2.9587-7.7576 0-10.714l-26.51-26.489c-2.9587-2.9564-7.7637-2.9564-10.722 0zm-72.595 0c-2.9587-2.9564-7.7637-2.9564-10.722 0l-26.51 26.489c-2.9587 2.9564-2.9587 7.7576 0 10.714l26.51 26.489c2.9587 2.9564 7.7637 2.9564 10.722 0 2.9587-2.9564 2.9587-7.7576 0-10.714l-21.161-21.121 21.161-21.144c2.9587-2.9564 2.9587-7.7576 0-10.714z" fill="#459db8" stroke-width=".23661"/>
</svg>
