<?xml version="1.0" encoding="UTF-8"?>
<svg width="640" height="220" version="1.1" viewBox="0 0 640 220" xml:space="preserve" xmlns="http://www.w3.org/2000/svg">
 <!--! Font Awesome Pro 6.4.0 by @fontawesome - https://fontawesome.com License - https://fontawesome.com/license (Commercial License) Copyright 2023 Fonticons, Inc. --><path d="m296.95 82.992c0-9.8881 8.0393-17.927 17.927-17.927h8.9637c9.8881 0 17.927 8.0393 17.927 17.927v1.0084c0 6.1065-3.1093 11.793-8.2354 15.07l-11.821 7.5912c-7.0589 4.5379-11.317 12.353-11.317 20.729v0.42017c0 4.958 4.0057 8.9637 8.9637 8.9637s8.9637-4.0057 8.9637-8.9637v-0.39216c0-2.297 1.1765-4.4258 3.0813-5.6583l11.821-7.5911c10.252-6.6107 16.471-17.955 16.471-30.168v-1.0084c0-19.804-16.051-35.855-35.855-35.855h-8.9637c-19.804 0-35.855 16.051-35.855 35.855 0 4.958 4.0056 8.9637 8.9637 8.9637 4.958 0 8.9637-4.0057 8.9637-8.9637zm22.409 89.637a11.205 11.205 0 1 0 0-22.409 11.205 11.205 0 1 0 0 22.409z" fill="#459db8" stroke-width=".28012"/></svg>
